# xmcd
#
# Track frame offsets: 
#        150
#        18752
#        41306
#        60177
#        80220
#        100502
#        118924
#        142692
#        160142
#        179897
#        203039
#        224687
#        248538
#
# Disc length: 3559 seconds
#
# Revision: 0
# Processed by: cddbd v1.5.2PL0 Copyright (c) Steve Scherf et al.
# Submitted via: ExactAudioCopyFreeDBPlugin 1.0
#
DISCID=a80de50d
DTITLE=王傑 - 今生無悔精選
DYEAR=2011
DGENRE=CPop
TTITLE0=今生無悔 I
TTITLE1=誰明浪子心
TTITLE2=幾分傷心幾分痴 
TTITLE3=一無所有
TTITLE4=酒醉酒醒
TTITLE5=可能 
TTITLE6=上帝也哭泣
TTITLE7=流浪的心
TTITLE8=人在風雨中
TTITLE9=溫柔的你
TTITLE10=是你是你
TTITLE11=為何分離
TTITLE12=今生無悔 II
EXTD=
EXTT0=
EXTT1=
EXTT2=
EXTT3=
EXTT4=
EXTT5=
EXTT6=
EXTT7=
EXTT8=
EXTT9=
EXTT10=
EXTT11=
EXTT12=
PLAYORDER=
